<?xml version="1.0" encoding="UTF-8" standalone="no"?>
<!-- Created with Inkscape (http://www.inkscape.org/) -->

<svg
   width="67mm"
   height="46mm"
   viewBox="0 0 67.186997 45.736"
   version="1.1"
   id="svg1"
   xml:space="preserve"
   xmlns="http://www.w3.org/2000/svg"
   xmlns:svg="http://www.w3.org/2000/svg"><defs
     id="defs1" /><g
     id="layer1"
     transform="translate(-0.05730194,-0.08576315)"><g
       id="g15"
       style="display:inline"
       transform="matrix(1.0148945,0,0,1.0360665,-50.748612,-38.300435)"><path
         id="rect11-2-3"
         style="fill:#ffffff;fill-opacity:1;stroke-width:32.0493"
         d="M 116.22262,81.220953 V 75.714186 L 101.79028,66.037364 H 87.872734 v 1.647516 l 20.188286,13.536073 z" /><path
         id="rect8-5-8-6"
         style="fill:#0000a6;fill-opacity:1;stroke-width:221.34"
         d="M 88.531045,67.476107 V 81.239486 H 109.00627 Z" /><path
         id="rect8-1"
         style="fill:#a80000;fill-opacity:1;stroke-width:125.288"
         d="m 93.747565,66.397239 22.240275,14.844313 h 0.25881 V 77.73184 L 99.264457,66.397238 Z" /><path
         id="rect8-0-0"
         style="fill:#0000a6;fill-opacity:1;stroke-width:139.697"
         d="m 101.34679,66.39233 14.89624,9.853662 V 66.39233 Z" /><path
         id="rect11-2"
         style="fill:#ffffff;fill-opacity:1;stroke-width:32.5097"
         d="m 50.098694,81.243699 v -5.585872 l 14.639672,-9.815829 h 14.11746 V 67.51318 L 58.377533,81.243699 Z" /><path
         id="rect8-5-8"
         style="fill:#0000a6;fill-opacity:1;stroke-width:220.75"
         d="M 77.740474,67.551676 57.374792,81.241036 H 77.740474 Z" /><path
         id="rect8-4"
         style="fill:#a80000;fill-opacity:1;stroke-width:124.693"
         d="M 71.94847,66.435739 50.101852,81.097022 v 0.146081 h 5.252727 L 77.418513,66.435738 Z" /><path
         id="rect8-0"
         style="fill:#0000a6;fill-opacity:1;stroke-width:139.697"
         d="m 50.09565,66.431087 v 9.845394 l 14.883846,-9.845394 z" /><path
         id="rect11-6"
         style="fill:#ffffff;fill-opacity:1;stroke-width:31.4729"
         d="m 116.24355,37.058203 v 5.407756 L 102.0707,51.968795 H 88.403387 V 50.350901 L 108.2287,37.058203 Z" /><path
         id="rect8-46"
         style="fill:#0000a6;fill-opacity:1;stroke-width:140.028"
         d="m 116.24872,41.943693 -14.94039,9.882733 h 14.94039 z" /><path
         id="rect8-3"
         style="fill:#a80000;fill-opacity:1;stroke-width:125.112"
         d="M 111.17101,37.055619 88.959366,51.840763 h 5.520022 L 116.24717,37.350835 V 37.05562 Z" /><path
         id="rect8-5-6"
         style="fill:#0000a6;fill-opacity:1;stroke-width:220.212"
         d="M 88.643685,37.063371 V 50.639803 L 108.8409,37.063371 Z" /><path
         id="rect11"
         style="fill:#ffffff;fill-opacity:1;stroke-width:31.4526"
         d="m 50.105469,37.064921 v 5.404242 l 14.163648,9.496657 h 13.65842 V 50.34898 L 58.115112,37.064921 Z" /><path
         id="rect8-5-6-0"
         style="fill:#0000a6;fill-opacity:1;stroke-width:220.971"
         d="M 77.68906,37.05637 V 50.679574 L 57.422264,37.05637 Z" /><path
         id="rect8"
         style="fill:#0000a6;fill-opacity:1;stroke-width:139.531"
         d="m 50.101335,41.99847 v 9.831634 h 14.863068 z" /><path
         id="rect8-6"
         style="fill:#a80000;fill-opacity:1;stroke-width:103.815"
         d="m 50.101851,37.056653 v 3.46315 l 16.930152,11.315408 5.499841,-1e-6 L 50.41913,37.056653 Z" /><rect
         style="display:inline;fill:#ffffff;fill-opacity:1;stroke-width:77.4709"
         id="rect15"
         width="66.145874"
         height="14.592916"
         x="50.104683"
         y="51.835255" /><rect
         style="fill:#ffffff;fill-opacity:1;stroke-width:162.17"
         id="rect14"
         width="10.957825"
         height="44.188919"
         x="77.68586"
         y="37.049934" /><rect
         style="fill:#a80000;fill-opacity:1;stroke-width:26.6647"
         id="rect12"
         width="6.6416478"
         height="44.188007"
         x="79.840088"
         y="37.055248" /><rect
         style="fill:#a80000;fill-opacity:1;stroke-width:82.3078"
         id="rect13"
         width="66.15567"
         height="8.9300308"
         x="50.095783"
         y="54.686897" /></g></g></svg>
