<?xml version="1.0" encoding="UTF-8" standalone="no"?>
<!-- Created with Inkscape (http://www.inkscape.org/) -->

<svg
   width="429.3924mm"
   height="88.037704mm"
   viewBox="0 0 429.39239 88.037704"
   version="1.1"
   id="svg1"
   xml:space="preserve"
   xmlns="http://www.w3.org/2000/svg"
   xmlns:svg="http://www.w3.org/2000/svg"><defs
     id="defs1" /><g
     id="layer1"
     transform="translate(-9.6922132,-0.65789147)"><path
       style="fill:#5897e2;fill-opacity:1;stroke-width:1.18893"
       d="m 11.854073,87.262027 c -1.50529,-3.839107 0.67291,-8.967851 5.189012,-12.217928 l 0.902772,-0.6497 -0.391496,-2.321052 C 16.02106,62.982906 21.168857,53.912595 33.527878,43.92837 c 4.230963,-3.417978 4.191336,-3.178671 0.571194,-3.450091 -3.592036,-0.269303 -4.583883,0.08323 -7.892535,2.805218 -5.946444,4.892089 -11.070728,3.640354 -15.137349,-3.69766 C 8.2467567,34.492892 8.7263387,33.659112 22.58899,19.55775 35.790567,6.1288676 34.464999,7.8774293 33.589096,5.0473265 32.737137,2.2945881 32.981473,1.4485618 34.722735,1.1218932 c 3.103721,-0.5822636 7.363861,0.7029749 9.998884,3.0165611 0.836587,0.7345292 1.734248,1.0905279 3.936421,1.5611395 7.653054,1.6354609 14.820077,7.6745502 18.461607,15.5561762 4.516628,9.77564 3.889233,18.658924 -2.378893,33.682533 -4.232497,10.144601 -4.372493,11.869562 -1.290576,15.902808 1.235482,1.616865 1.304701,1.819089 1.232294,3.6005 -0.06005,1.476584 0.06432,2.092828 0.570982,2.831125 2.473484,3.603926 2.348326,3.208596 2.251061,7.110205 l -0.08941,3.585152 -27.610592,0.08037 -27.610607,0.08037 z m 50.054474,-4.801932 c -0.186089,-0.347701 -0.757296,-1.252961 -1.269354,-2.011684 -0.512058,-0.758723 -0.931011,-1.535923 -0.931011,-1.727089 0,-1.58952 0.0598,-1.584385 -18.653073,-1.600554 l -17.415154,-0.0151 -2.963396,2.40234 c -2.885939,2.339539 -3.420492,2.861288 -3.430435,3.348283 -0.0027,0.129759 10.121436,0.235929 22.497971,0.235929 22.441365,0 22.501857,-0.0012 22.164452,-0.632174 z M 56.444871,71.359814 c 0.03448,-0.03519 -0.282999,-1.054789 -0.7054,-2.265886 -1.254838,-3.59779 -0.739118,-6.720999 2.345699,-14.205785 0.867059,-2.103742 2.458338,-6.279646 3.536193,-9.2798 l 1.959738,-5.454807 0.14776,-4.886703 C 64.126948,22.102451 56.536026,11.922028 44.86731,9.9710057 44.206102,9.8604351 43.262406,9.3588643 42.665328,8.8006051 39.909901,6.2243848 38.745102,5.7230641 39.049348,7.2442918 39.470012,9.347581 38.878641,10.186153 32.182563,16.981625 21.046638,28.282858 16.25837,33.213919 15.79928,33.853501 c -0.950254,1.323843 -0.248457,4.569902 0.988011,4.569902 0.249709,0 0.454016,0.190393 0.454016,0.423102 0,2.017318 3.182523,2.200388 5.418533,0.311711 5.448731,-4.602372 5.086886,-4.498935 14.556626,-4.161197 5.97533,0.213103 10.223508,-3.078622 10.223508,-7.921751 0,-1.188568 1.619161,-1.883268 2.8518,-1.22357 1.3989,0.748665 0.599075,6.197277 -1.467524,9.99715 -2.250538,4.138072 -3.61352,5.558135 -11.293218,11.766148 -8.353128,6.752398 -11.386195,10.394821 -13.276384,15.943646 -0.897137,2.633646 -1.211303,7.395963 -0.516327,7.826841 0.304813,0.188979 32.521007,0.163691 32.70655,-0.02568 z"
       id="path1" /><path
       id="rect2"
       style="fill:#ffffff;stroke-width:0.048515"
       d="m 79.285488,0.65789151 h 0.182208 c 0.739169,0 1.33424,0.59507079 1.33424,1.33423949 v 85.369233 c 0,0.739169 -0.595071,1.33424 -1.33424,1.33424 h -0.182208 c -0.739169,0 -1.33424,-0.595071 -1.33424,-1.33424 V 1.992131 c 0,-0.7391687 0.595071,-1.33423949 1.33424,-1.33423949 z" /><path
       d="M 85.708881,76.2509 V 12.71519 H 95.937003 L 117.26004,55.144563 V 12.71519 h 9.79473 V 76.2509 H 116.47993 L 95.503608,34.818336 V 76.2509 Z m 70.453259,-14.648751 9.92474,2.036956 q -1.99361,6.93432 -6.19755,10.314802 -4.20393,3.337141 -10.22812,3.337141 -8.36452,0 -12.91517,-5.590795 -5.3741,-6.500926 -5.3741,-18.202591 0,-11.528308 5.41744,-18.462628 4.59399,-5.850833 11.87502,-5.850833 8.10449,0 12.69848,5.980851 5.28742,6.847642 5.28742,20.196208 l -0.0433,1.386864 h -25.0069 q 0.0867,5.460778 2.42702,8.451203 2.38367,2.990426 5.72081,2.990426 4.81069,0 6.41425,-6.587604 z m 0.56341,-12.308419 q -0.13002,-5.374098 -2.29699,-8.061147 -2.16698,-2.730389 -5.1574,-2.730389 -3.16379,0 -5.33076,2.817068 -2.21032,2.860407 -2.16698,7.974468 z m 39.03212,26.95717 v -6.890981 q -2.08029,3.727198 -5.46078,5.850833 -3.38048,2.080296 -7.06433,2.080296 -3.7272,0 -6.67429,-1.950277 -2.94708,-1.950278 -4.42063,-5.547457 -1.4302,-3.597178 -1.4302,-10.44482 V 30.224349 h 10.01142 v 21.149677 q 0,9.057956 0.4334,11.528308 0.47673,2.427012 2.03696,3.770536 1.56022,1.343525 3.77053,1.343525 2.51369,0 4.63733,-1.73358 2.12363,-1.77692 2.77373,-4.507308 0.69343,-2.773729 0.69343,-12.135061 V 30.224349 h 9.96808 V 76.2509 Z"
       id="text2"
       style="font-weight:bold;font-stretch:condensed;font-size:88.7593px;font-family:Arial;-inkscape-font-specification:'Arial Bold Condensed';letter-spacing:-3.78731px;fill:#ffffff;stroke-width:24.5244"
       transform="scale(1.0441228,0.95774178)"
       aria-label="Neu" /><path
       d="m 277.22606,49.695818 6.0554,1.529455 q -1.90402,7.459998 -6.86694,11.392883 -4.93172,3.901673 -12.07958,3.901673 -7.39757,0 -12.04836,-2.996485 -4.61958,-3.027697 -7.05423,-8.739746 -2.40343,-5.712048 -2.40343,-12.266857 0,-7.147864 2.71557,-12.454138 2.74677,-5.337488 7.77213,-8.084265 5.05656,-2.777991 11.11196,-2.777991 6.86694,0 11.54895,3.495898 4.68201,3.495899 6.5236,9.832215 l -5.96176,1.404602 q -1.59188,-4.994141 -4.61958,-7.272718 -3.0277,-2.278576 -7.61606,-2.278576 -5.27507,0 -8.83339,2.528283 -3.52711,2.528284 -4.96293,6.804517 -1.43581,4.245019 -1.43581,8.770959 0,5.836902 1.68552,10.206775 1.71674,4.33866 5.30627,6.492383 3.58954,2.153723 7.77214,2.153723 5.08778,0 8.61489,-2.934058 3.52711,-2.934057 4.77564,-8.708532 z m 10.11726,16.043676 V 19.980681 h 5.61841 v 16.418238 q 3.93288,-4.557154 9.92585,-4.557154 3.68318,0 6.39874,1.467029 2.71557,1.435815 3.87046,3.995312 1.18611,2.559498 1.18611,7.428785 v 21.006603 h -5.61841 V 44.732891 q 0,-4.213807 -1.84159,-6.117823 -1.81037,-1.935229 -5.1502,-1.935229 -2.49707,0 -4.71322,1.310962 -2.18494,1.279748 -3.12134,3.495898 -0.9364,2.21615 -0.9364,6.117822 v 18.134973 z m 55.56393,-10.674975 5.80569,0.717908 q -1.37339,5.08778 -5.08778,7.896984 -3.71439,2.809204 -9.48887,2.809204 -7.27271,0 -11.54895,-4.463513 -4.24502,-4.494726 -4.24502,-12.578991 0,-8.365186 4.30745,-12.984766 4.30745,-4.61958 11.17439,-4.61958 6.64845,0 10.86225,4.52594 4.21381,4.52594 4.21381,12.735059 0,0.499414 -0.0312,1.498242 h -24.721 q 0.31214,5.462341 3.09013,8.365185 2.77799,2.902844 6.92937,2.902844 3.09012,0 5.27506,-1.623095 2.18493,-1.623096 3.46468,-5.181421 z m -18.4471,-9.083093 h 18.50953 q -0.37456,-4.182593 -2.12251,-6.273889 -2.68435,-3.246192 -6.96058,-3.246192 -3.87046,0 -6.5236,2.590711 -2.62192,2.59071 -2.90284,6.92937 z m 26.37942,9.863427 5.55598,-0.873974 q 0.4682,3.339831 2.59071,5.118994 2.15372,1.779162 5.99297,1.779162 3.87046,0 5.74326,-1.560669 1.8728,-1.591882 1.8728,-3.714392 0,-1.904016 -1.65431,-2.996484 -1.15489,-0.749121 -5.74326,-1.904016 -6.18025,-1.560669 -8.58368,-2.684351 -2.37222,-1.154895 -3.62075,-3.152551 -1.21732,-2.028869 -1.21732,-4.463513 0,-2.21615 0.99883,-4.088953 1.03004,-1.904016 2.77799,-3.152551 1.31096,-0.967614 3.55832,-1.623095 2.27858,-0.686695 4.86929,-0.686695 3.90167,0 6.83573,1.123682 2.96527,1.123681 4.36987,3.058911 1.4046,1.904016 1.93523,5.118994 l -5.49355,0.749121 q -0.37456,-2.559497 -2.18494,-3.995312 -1.77916,-1.435816 -5.05657,-1.435816 -3.87046,0 -5.52477,1.279749 -1.6543,1.279748 -1.6543,2.996484 0,1.092468 0.68669,1.966443 0.68669,0.905188 2.15372,1.498242 0.84276,0.312134 4.96293,1.435816 5.96176,1.591882 8.30276,2.621923 2.37222,0.998828 3.71439,2.934058 1.34218,1.935229 1.34218,4.80686 0,2.809204 -1.65431,5.306275 -1.6231,2.465856 -4.71322,3.839245 -3.09013,1.342175 -6.9918,1.342175 -6.46117,0 -9.86343,-2.68435 -3.37104,-2.684351 -4.30744,-7.959412 z m 29.28227,0 5.55598,-0.873974 q 0.4682,3.339831 2.59071,5.118994 2.15372,1.779162 5.99297,1.779162 3.87046,0 5.74326,-1.560669 1.8728,-1.591882 1.8728,-3.714392 0,-1.904016 -1.65431,-2.996484 -1.15489,-0.749121 -5.74326,-1.904016 -6.18025,-1.560669 -8.58368,-2.684351 -2.37221,-1.154895 -3.62075,-3.152551 -1.21732,-2.028869 -1.21732,-4.463513 0,-2.21615 0.99883,-4.088953 1.03004,-1.904016 2.77799,-3.152551 1.31096,-0.967614 3.55832,-1.623095 2.27858,-0.686695 4.86929,-0.686695 3.90167,0 6.83573,1.123682 2.96527,1.123681 4.36987,3.058911 1.40461,1.904016 1.93523,5.118994 l -5.49355,0.749121 q -0.37456,-2.559497 -2.18494,-3.995312 -1.77916,-1.435816 -5.05657,-1.435816 -3.87045,0 -5.52476,1.279749 -1.65431,1.279748 -1.65431,2.996484 0,1.092468 0.68669,1.966443 0.6867,0.905188 2.15373,1.498242 0.84276,0.312134 4.96292,1.435816 5.96176,1.591882 8.30276,2.621923 2.37222,0.998828 3.71439,2.934058 1.34218,1.935229 1.34218,4.80686 0,2.809204 -1.65431,5.306275 -1.6231,2.465856 -4.71322,3.839245 -3.09013,1.342175 -6.9918,1.342175 -6.46117,0 -9.86343,-2.68435 -3.37104,-2.684351 -4.30744,-7.959412 z"
       id="text4"
       style="font-size:63.925px;font-family:Arial;-inkscape-font-specification:Arial;letter-spacing:-2.68023px;fill:#ffffff;stroke-width:0.125837"
       transform="scale(0.89574217,1.1163927)"
       aria-label="Chess" /><path
       id="path3"
       style="fill:#5897e2;stroke-width:0.1"
       d="m 374.73783,70.420403 a 3.349864,3.349864 0 0 1 -3.34986,3.349864 3.349864,3.349864 0 0 1 -3.34986,-3.349864 3.349864,3.349864 0 0 1 3.34986,-3.349864 3.349864,3.349864 0 0 1 3.34986,3.349864 z" /><path
       d="M 379.46292,73.629219 V 27.870406 h 5.61841 v 16.418237 q 3.93288,-4.557153 9.92585,-4.557153 3.68318,0 6.39875,1.467029 2.71556,1.435815 3.87046,3.995312 1.1861,2.559497 1.1861,7.428784 v 21.006604 h -5.6184 V 52.622615 q 0,-4.213806 -1.84159,-6.117822 -1.81038,-1.935229 -5.15021,-1.935229 -2.49707,0 -4.71322,1.310962 -2.18494,1.279748 -3.12134,3.495898 -0.9364,2.21615 -0.9364,6.117822 v 18.134973 z m 54.59632,0 v -4.869287 q -3.87046,5.618408 -10.51891,5.618408 -2.93406,0 -5.49355,-1.123681 -2.52829,-1.123682 -3.77682,-2.809205 -1.21732,-1.716735 -1.71674,-4.182592 -0.34335,-1.654309 -0.34335,-5.243848 V 40.480611 h 5.61841 v 18.38468 q 0,4.401086 0.34335,5.930542 0.53063,2.21615 2.24736,3.495898 1.71674,1.248535 4.24502,1.248535 2.52829,0 4.74444,-1.279748 2.21615,-1.310962 3.12133,-3.527112 0.93641,-2.247363 0.93641,-6.492383 V 40.480611 h 5.6184 v 33.148608 z"
       id="text3"
       style="font-size:63.925px;font-family:Arial;-inkscape-font-specification:Arial;letter-spacing:-2.68023px;fill:#5897e2;stroke-width:0.157604"
       aria-label="hu" /></g></svg>
